<svg xmlns="http://www.w3.org/2000/svg" width="15" height="15" viewBox="0 0 15 15" fill="none">
  <path d="M13.6031 5.50968L3.94496 4.44093L3.35621 2.21015C3.33561 2.13541 3.29118 2.06943 3.22968 2.02223C3.16818 1.97502 3.09296 1.94917 3.01543 1.94859H1.56559C1.51329 1.87795 1.44528 1.82042 1.36694 1.78056C1.28861 1.7407 1.20207 1.71959 1.11418 1.7189C0.959836 1.7189 0.811814 1.78022 0.702677 1.88935C0.593539 1.99849 0.532227 2.14651 0.532227 2.30086C0.532227 2.4552 0.593539 2.60322 0.702677 2.71236C0.811814 2.8215 0.959836 2.88281 1.11418 2.88281C1.30168 2.88281 1.46012 2.78906 1.56652 2.65218H2.74402L5.19559 11.9334C4.92808 12.218 4.77892 12.5938 4.7784 12.9844C4.77821 13.1871 4.818 13.3879 4.89548 13.5752C4.97295 13.7625 5.08661 13.9327 5.22993 14.0761C5.37325 14.2195 5.54343 14.3332 5.73074 14.4107C5.91805 14.4882 6.1188 14.5281 6.32152 14.528C6.73112 14.5281 7.124 14.3656 7.41381 14.0761C7.70361 13.7867 7.86662 13.394 7.86699 12.9844C7.86614 12.867 7.85151 12.7501 7.8234 12.6361H10.417C10.3895 12.7502 10.375 12.867 10.3739 12.9844C10.3739 13.8375 11.0657 14.528 11.9189 14.528C12.772 14.528 13.4625 13.8375 13.4625 12.9844C13.4626 12.5747 13.3 12.1817 13.0104 11.8919C12.7209 11.6021 12.3281 11.4392 11.9184 11.4389C11.4731 11.4389 11.0746 11.6311 10.7925 11.9325H7.44746C7.30384 11.7772 7.12971 11.6532 6.93597 11.5683C6.74224 11.4833 6.53306 11.4393 6.32152 11.4389C6.1434 11.4389 5.97559 11.4755 5.81668 11.5308L5.73137 11.2092H12.5671C12.8299 11.2038 13.0831 11.1103 13.2863 10.9437C13.4895 10.7771 13.6308 10.547 13.6875 10.2905L14.4257 6.63515C14.4387 6.57129 14.445 6.50625 14.4445 6.44109C14.4448 6.20906 14.3589 5.98518 14.2034 5.81296C14.0479 5.64074 13.834 5.53295 13.6031 5.50968ZM11.9193 13.1222C11.8827 13.1218 11.8476 13.1072 11.8216 13.0813C11.7956 13.0555 11.7807 13.0205 11.7801 12.9839C11.7815 12.9061 11.8434 12.8442 11.9198 12.8442C11.9962 12.8442 12.0581 12.9061 12.059 12.9834C12.0583 13.02 12.0433 13.0548 12.0174 13.0806C11.9914 13.1063 11.9564 13.1209 11.9198 13.1212L11.9193 13.1222ZM12.7537 9.6089L13.1981 9.16359L13.049 9.90421L12.7537 9.6089ZM5.97887 5.37281L6.46402 5.85937L5.85934 6.46406L5.25324 5.85937L5.76277 5.34937L5.97887 5.37281ZM8.08731 5.60625L8.33949 5.85937L7.7348 6.46406L7.12871 5.85937L7.45121 5.53593L8.08731 5.60625ZM4.51402 6.59812L4.92184 6.19125L5.52652 6.79687L4.92184 7.40156L4.65699 7.13765L4.51449 6.59765L4.51402 6.59812ZM4.37574 6.07312L4.22199 5.49187L4.58996 5.85984L4.37574 6.07312ZM10.214 7.73437L9.60934 8.33906L9.00324 7.73437L9.60887 7.12828L10.214 7.73437ZM9.94074 6.79687L10.5464 6.19125L11.1511 6.79687L10.5464 7.4025L9.94074 6.79687ZM8.67184 7.40156L8.06574 6.79687L8.67137 6.19078L9.27605 6.7964L8.67184 7.40156ZM8.33902 7.73437L7.73434 8.33906L7.12871 7.73437L7.73434 7.12828L8.33902 7.73437ZM6.79684 7.40156L6.19074 6.79687L6.79637 6.19078L7.40105 6.7964L6.79684 7.40156ZM6.46402 7.73437L5.85934 8.33906L5.25324 7.73437L5.85887 7.12828L6.46402 7.73437ZM4.92184 8.06578L5.52652 8.6714L5.15902 9.03843L4.9059 8.08031L4.92137 8.06484L4.92184 8.06578ZM5.29777 9.56437L5.85887 9.00328L6.46355 9.6089L5.85887 10.2136L5.32918 9.6839L5.29777 9.56437ZM6.19121 8.6714L6.7959 8.06531L7.40199 8.67093L6.79731 9.27562L6.19168 8.67093L6.19121 8.6714ZM7.73434 9.00281L8.33996 9.60843L7.73434 10.2131L7.12871 9.60843L7.73434 9.00281ZM8.06621 8.67093L8.67184 8.06484L9.27652 8.67046L8.67184 9.27515L8.06621 8.67093ZM9.6084 9.00234L10.2145 9.60796L9.6098 10.2127L9.00418 9.60703L9.6084 9.00234ZM9.94121 8.67046L10.5459 8.06437L11.152 8.67L10.5473 9.27468L9.94121 8.67046ZM10.8787 7.73296L11.4834 7.12687L12.0895 7.7325L11.4848 8.33718L10.8787 7.73296ZM11.8162 6.79546L12.4209 6.18937L13.0265 6.79687L12.4218 7.4025L11.8157 6.7964L11.8162 6.79546ZM11.4834 6.46359L10.942 5.92172L11.9179 6.02953L11.4834 6.46359ZM10.215 5.85937L9.61027 6.465L9.00418 5.85937L9.14012 5.72343L10.1962 5.84062L10.215 5.85937ZM6.79777 5.52656L6.72652 5.45625L6.85449 5.47031L6.79824 5.52656H6.79777ZM4.92277 5.5275L4.61809 5.22281L5.16652 5.28375L4.92277 5.5275ZM6.79777 9.94078L7.36262 10.5056H6.23293L6.79777 9.94078ZM8.67277 9.94078L9.23762 10.5061H8.10699L8.67277 9.94078ZM10.5478 9.94078L11.1136 10.5066H9.98199L10.5478 9.94078ZM10.8792 9.6089L11.4848 9.00281L12.0895 9.60843L11.4848 10.2131L10.8792 9.6089ZM11.8167 8.6714L12.4223 8.06578L13.027 8.67046L12.4223 9.27656L11.8162 8.67187L11.8167 8.6714ZM13.3598 8.33859L12.7542 7.7339L13.3589 7.12828L13.5675 7.3364L13.3659 8.33203L13.3593 8.33906L13.3598 8.33859ZM13.5942 6.22922L13.3598 6.46359L13.0504 6.15562L13.5271 6.20812C13.5525 6.21187 13.574 6.22031 13.5946 6.22875L13.5942 6.22922ZM6.32246 13.1217C6.287 13.1197 6.25366 13.1041 6.22928 13.0783C6.2049 13.0524 6.19132 13.0183 6.19132 12.9827C6.19132 12.9472 6.2049 12.913 6.22928 12.8872C6.25366 12.8613 6.287 12.8458 6.32246 12.8437C6.3578 12.8458 6.39103 12.8613 6.41532 12.887C6.43962 12.9128 6.45315 12.9469 6.45315 12.9823C6.45315 13.0177 6.43962 13.0517 6.41532 13.0775C6.39103 13.1032 6.3578 13.1187 6.32246 13.1208V13.1217ZM12.5676 10.5061H11.8565L12.4223 9.94031L12.8582 10.3762C12.7706 10.4559 12.66 10.5122 12.5676 10.5061Z" fill="white"/>
</svg>