<svg width="35" height="35" viewBox="0 0 35 35" fill="none" xmlns="http://www.w3.org/2000/svg">
<path d="M3.08398 10.8792C3.08398 10.8792 3.34843 9.9964 4.4169 8.45737C5.48537 6.91835 8.26982 4.59474 8.77537 4.3371C9.28093 4.07946 9.71843 3.94918 10.1443 4.46154C10.467 4.84946 12.4688 8.52835 14.3822 9.96529C16.6523 11.6696 19.1334 11.4421 20.6277 11.0561C21.1007 10.9389 21.5612 10.7758 22.0025 10.569C22.0025 10.569 25.5715 18.6375 26.2073 20.2533C26.4173 20.7881 26.6088 21.3131 26.8072 21.7583C27.4887 23.2886 28.5961 24.5632 29.8658 25.7056C31.1365 26.8479 32.3051 27.5722 32.622 27.8357C32.939 28.0992 36.0977 30.0164 34.267 32.8728C34.267 32.8728 27.2184 31.8549 20.2768 27.1299C14.8945 23.4656 14.6097 20.477 8.18426 15.4943C3.89676 12.1713 3.08398 10.8792 3.08398 10.8792Z" fill="#C36446"/>
<path d="M14.9546 24.045C15.9521 25.1971 17.6516 27.2339 20.1803 28.8439C27.1414 33.2772 34.4982 33.3404 34.4982 33.3404L34.6227 32.935C34.6742 32.7532 34.5634 32.6569 34.4234 32.6258C33.7564 32.4761 31.4552 31.9521 30.2564 31.4961C27.751 30.5424 25.0482 29.9094 21.3732 27.3583C17.6982 24.8072 15.9356 22.4671 14.3023 20.6967C12.6689 18.9262 9.24283 15.5342 6.77046 13.8192C4.86199 12.495 3.72741 11.2583 3.30935 10.7635C3.21213 10.6487 3.10033 10.7032 3.01477 10.8267L2.16699 12.0507C2.16699 12.0517 11.8494 20.4575 14.9546 24.045Z" fill="#803F29"/>
<path d="M21.3919 23.3576L21.0953 22.9425C16.3421 16.2974 11.8884 17.3367 11.0406 17.6128C10.8987 17.6594 10.3814 17.8179 10.3814 17.8179L9.96338 16.4529C9.96338 16.4529 10.4582 16.3012 10.5953 16.2565C11.588 15.9328 16.7009 14.7068 21.9207 21.6562C22.4564 21.4054 23.4199 20.8687 24.5516 19.8499C24.258 19.0332 23.5881 17.2171 22.8881 15.6829C21.9499 13.6247 20.6248 11.0551 20.6248 11.0551C21.2032 10.9035 21.9995 10.5681 21.9995 10.5681C21.9995 10.5681 23.2371 13.0054 24.187 15.0908C25.1456 17.1937 26.0187 19.7147 26.0556 19.8207L26.2034 20.2524L25.8738 20.5683C23.7096 22.644 21.9528 23.1875 21.8789 23.2099L21.3919 23.3576Z" fill="#803F29"/>
<path d="M8.96486 21.524C9.44125 21.4637 10.3629 20.8444 10.6983 20.9028C11.0338 20.9621 13.2786 23.3596 14.3063 24.5068C15.3339 25.654 17.1082 27.6247 19.6 29.3533C22.0918 31.0819 25.8251 32.5879 28.1643 33.4726C30.5035 34.3574 32.9758 34.8503 33.4814 34.8746C33.9869 34.8989 33.9578 34.7307 34.0501 34.5499C34.1425 34.369 34.4974 33.3394 34.4974 33.3394C34.4974 33.3394 32.3118 33.0487 29.7811 32.0775C27.2504 31.1062 24.5136 30.449 20.7939 27.8678C17.0742 25.2865 15.2853 22.9279 13.6296 21.141C11.9739 19.354 8.50111 15.9308 5.99958 14.1944C4.06972 12.8557 3.06542 11.7153 2.6182 11.236C2.45778 11.0649 2.24875 11.1757 2.12236 11.3526L0.421947 13.5956C0.273197 13.8104 0.109863 14.421 0.595002 14.9314C1.08014 15.4437 8.48847 21.5843 8.96486 21.524ZM20.2407 14.2392C20.0501 14.2392 19.8652 14.174 19.7167 14.0545C19.5681 13.9351 19.4649 13.7684 19.4241 13.5822C19.3832 13.396 19.4072 13.2015 19.4921 13.0308C19.5769 12.8601 19.7176 12.7236 19.8907 12.6437L22.2094 11.5782C22.4099 11.4915 22.6363 11.4867 22.8403 11.5648C23.0442 11.6428 23.2095 11.7976 23.3008 11.996C23.3921 12.1944 23.4022 12.4206 23.3289 12.6263C23.2556 12.832 23.1047 13.0009 22.9085 13.0968L20.5897 14.1624C20.4804 14.2131 20.3612 14.2393 20.2407 14.2392ZM21.6737 17.0606C21.4839 17.0606 21.2996 16.9961 21.1513 16.8776C21.003 16.759 20.8995 16.5935 20.8577 16.4083C20.816 16.2231 20.8385 16.0292 20.9216 15.8585C21.0047 15.6877 21.1435 15.5504 21.315 15.469L23.6201 14.3782C23.8201 14.2859 24.0484 14.2762 24.2555 14.3512C24.4626 14.4263 24.6317 14.58 24.7261 14.779C24.8204 14.978 24.8325 15.2062 24.7596 15.4141C24.6867 15.6219 24.5347 15.7926 24.3367 15.889L22.0315 16.9799C21.9193 17.0317 21.7974 17.0592 21.6737 17.0606ZM23.0319 20.0151C22.8432 20.0154 22.6599 19.9517 22.5119 19.8345C22.3639 19.7173 22.2599 19.5535 22.2169 19.3697C22.1738 19.1859 22.1943 18.9929 22.2748 18.8222C22.3554 18.6515 22.4913 18.5131 22.6606 18.4294L24.8238 17.359C24.9224 17.3073 25.0305 17.2759 25.1415 17.2665C25.2525 17.2571 25.3643 17.27 25.4702 17.3045C25.5762 17.3389 25.6742 17.3941 25.7585 17.467C25.8428 17.5398 25.9117 17.6288 25.9611 17.7286C26.0105 17.8285 26.0395 17.9372 26.0463 18.0484C26.0532 18.1596 26.0377 18.271 26.0009 18.3762C25.964 18.4813 25.9065 18.578 25.8318 18.6606C25.757 18.7432 25.6665 18.8101 25.5656 18.8572L23.4024 19.9276C23.2875 19.9856 23.1606 20.0156 23.0319 20.0151Z" fill="#292F33"/>
</svg>
