<svg width="99" height="90" viewBox="0 0 99 90" fill="none" xmlns="http://www.w3.org/2000/svg">
<path d="M17.6829 3.26997L7.91812 13.0349C7.51221 13.4408 6.85407 13.4408 6.44816 13.0349L0.304435 6.89111C-0.101478 6.48519 -0.101478 5.82705 0.304435 5.42113L1.80002 3.92553C2.20593 3.51961 2.86403 3.51961 3.26998 3.92553L7.18318 7.83877L14.7174 0.304439C15.1233 -0.10148 15.7814 -0.10148 16.1874 0.304439L17.683 1.80003C18.0888 2.20595 18.0889 2.86405 17.6829 3.26997Z" fill="white"/>
<path d="M96.6128 38.3579L96.615 38.3562L84.469 29.0085V10.0391H59.8205L57.44 8.2071C53.4558 5.14084 47.8985 5.14084 43.9142 8.2071L41.5623 10.0391H18.8545H17.3565L17.3564 28.8948L5.21038 38.3562L5.21268 38.3579C3.77018 39.3732 2.82538 41.0447 2.82538 42.939V44.1407V84.1109C2.82538 87.2079 5.34342 89.7186 8.44954 89.7186H56.7965H93.3757C96.4818 89.7186 99 87.208 99 84.1109V42.939C99 41.0447 98.0552 39.3732 96.6128 38.3579Z" fill="#F6A654"/>
<path d="M57.44 8.20686C53.4558 5.1406 47.8985 5.1406 43.9142 8.20686L41.5623 10.0388H59.8204L57.44 8.20686Z" fill="#CB6739"/>
<path d="M84.469 29.0084V43.1465V44.8526V47.8174L96.6128 38.3578L96.615 38.356L84.469 29.0084Z" fill="#CB6739"/>
<path d="M17.3565 38.7832V28.8945L5.21039 38.3559L5.21269 38.3577L17.4101 47.7448C17.3769 47.7193 17.3565 47.7035 17.3565 47.7035V38.7832Z" fill="#CB6739"/>
<path d="M59.8205 10.0389H41.5623H18.8545H17.3565V47.7036C17.3565 47.7036 20.0107 49.7467 23.5872 52.4996C23.6172 52.5227 23.6481 52.5464 23.6782 52.5696C24.8699 53.4869 26.1614 54.4809 27.4897 55.5033C28.874 56.5688 30.2974 57.6644 31.6899 58.7361C32.067 59.0264 32.442 59.3149 32.8131 59.6006C33.9265 60.4575 35.0062 61.2884 36.0137 62.0638C36.5175 62.4515 37.0032 62.8253 37.4661 63.1816C37.6204 63.3003 37.7722 63.4171 37.9212 63.5318C38.2193 63.7612 38.5065 63.9822 38.7815 64.1938C39.0564 64.4053 39.319 64.6074 39.568 64.799C39.817 64.9905 40.0522 65.1715 40.2723 65.3409C41.365 66.1816 42.0838 66.7343 42.2566 66.8668C42.2578 66.8677 42.2601 66.8695 42.2613 66.8704C42.262 66.8709 42.2627 66.8715 42.2634 66.872C42.3371 66.9285 42.4103 66.9852 42.483 67.0421C42.63 67.1571 42.7751 67.273 42.9195 67.389C43.0639 67.505 43.2074 67.6213 43.3509 67.7373C45.216 69.2445 47.0738 70.6935 50.7197 70.7987C50.8598 70.8028 51.0027 70.8048 51.1483 70.8048C51.3578 70.8048 51.5672 70.7968 51.7764 70.7849C53.4693 70.7024 54.8252 70.2961 55.9677 69.7326C56.3338 69.552 56.6785 69.3557 57.0062 69.1496C57.1701 69.0465 57.3297 68.941 57.4856 68.8337C57.7194 68.6728 57.9449 68.5078 58.1639 68.3415C58.8209 67.8425 59.4195 67.3301 60.0097 66.8704C60.2665 66.6704 60.8321 66.2299 61.6172 65.6183C61.8907 65.4052 62.1905 65.1717 62.5153 64.9186C62.9078 64.613 63.3347 64.2804 63.7914 63.9246C64.5314 63.3482 65.3469 62.713 66.2158 62.0361C66.5693 61.7608 66.93 61.4798 67.299 61.1923C67.5775 60.9754 67.8589 60.7562 68.1446 60.5336C68.3189 60.3978 68.4945 60.2611 68.671 60.1235C69.3774 59.5733 70.1005 59.0101 70.8298 58.4419C71.0121 58.2999 71.1949 58.1576 71.3778 58.015C71.7437 57.73 72.1106 57.4442 72.477 57.1587C72.8435 56.8733 73.2096 56.588 73.574 56.3042C73.6375 56.2548 73.7006 56.2057 73.7639 56.1564C74.1761 55.8353 74.5856 55.5163 74.991 55.2004L75.6171 54.7128C75.9526 54.4514 76.284 54.1932 76.6111 53.9386C76.6651 53.8964 76.7198 53.8538 76.7736 53.8119C77.1446 53.5229 77.5062 53.2412 77.8624 52.9637C77.9787 52.8732 78.096 52.7817 78.2105 52.6926C78.2313 52.6764 78.2529 52.6596 78.2736 52.6435C78.285 52.6346 78.2961 52.6261 78.3074 52.6172C78.7797 52.2492 79.2363 51.8937 79.672 51.5542C79.8275 51.4331 79.9801 51.3142 80.1302 51.1973C80.2673 51.0905 80.4024 50.9852 80.5348 50.8821C80.6396 50.8006 80.7412 50.7213 80.8429 50.6421C81.5039 50.1272 82.0959 49.666 82.6014 49.2723L82.8312 49.0932C83.6052 48.4904 84.1409 48.0731 84.3578 47.9041L84.4256 47.8513C84.4517 47.831 84.469 47.8175 84.469 47.8175V44.8527V43.1466V29.0083V10.0389H59.8205Z" fill="#E2F3FE"/>
<path d="M60.4003 18.5361H26.2449V22.5192H60.4003V18.5361Z" fill="#383B4E"/>
<path d="M75.7803 24.7762H26.2449V25.5729H75.7803V24.7762Z" fill="#383B4E"/>
<path d="M75.7803 27.0333H26.2449V27.8299H75.7803V27.0333Z" fill="#383B4E"/>
<path d="M75.7803 29.2904H26.2449V30.0871H75.7803V29.2904Z" fill="#383B4E"/>
<path d="M75.7803 31.5475H26.2449V32.3442H75.7803V31.5475Z" fill="#383B4E"/>
<path d="M59.1354 33.8046H26.2449V34.6012H59.1354V33.8046Z" fill="#383B4E"/>
<path d="M57.5817 43.0233C54.4498 40.0383 49.3455 39.7468 45.8879 42.3518C42.4295 44.9575 40.5594 49.8615 41.7268 54.0757C42.2955 56.1282 43.6423 57.9085 45.4494 59.0398C47.3594 60.2355 49.718 60.5854 51.9078 60.0795C52.4744 59.9485 53.0159 59.7465 53.5454 59.5085C53.8903 59.3535 53.9734 58.854 53.7967 58.5529C53.5892 58.1991 53.1845 58.1467 52.8383 58.3023C51.0876 59.0893 49.0036 59.1182 47.228 58.3929C45.6389 57.7438 44.3223 56.4912 43.5551 54.9658C41.8724 51.6202 43.0545 47.2166 45.5107 44.5627C46.7368 43.238 48.2962 42.3536 50.0836 42.0504C51.8041 41.7584 53.6641 42.0901 55.1755 42.9553C58.0252 44.5867 59.7988 48.2894 58.7263 51.4854C58.472 52.2434 58.0244 52.9814 57.3731 53.4635C57.0195 53.7252 56.5469 53.9836 56.0945 53.9684C55.7506 53.9568 55.5386 53.7995 55.3753 53.5506C54.9333 52.8773 54.9338 51.9777 54.9372 51.1814C54.9376 51.0951 54.9407 51.009 54.9417 50.9227C55.1474 49.9389 55.1685 48.904 55.0988 47.8912C55.1133 47.7317 55.1261 47.5719 55.1425 47.4125C55.1812 47.0367 54.7928 46.7141 54.442 46.7141C54.2681 46.7141 54.1251 46.7739 54.0125 46.8687C52.7556 46.0459 51.1162 45.9554 49.7344 46.5886C48.2249 47.2806 47.1789 48.8473 46.9177 50.4589C46.6375 52.1876 47.1888 54.1747 48.9209 54.9244C50.5507 55.6299 52.443 55.0571 53.5867 53.7499C53.6673 53.6579 53.7423 53.5634 53.8153 53.4681C53.8688 53.6341 53.929 53.7987 54.0042 53.9595C54.4262 54.8623 55.3277 55.454 56.3421 55.3504C57.3653 55.2459 58.33 54.6323 58.9789 53.8522C61.6407 50.653 60.3841 45.6943 57.5817 43.0233ZM53.5423 50.8362C53.4342 51.2765 53.277 51.704 53.048 52.1077C52.4417 53.1766 51.3306 54.0134 50.0405 53.8158C48.7701 53.6213 48.2122 52.4344 48.2383 51.256C48.2648 50.0594 48.8671 48.7937 49.8744 48.1129C50.9723 47.3706 52.5498 47.3372 53.5561 48.2657C53.5888 48.296 53.6226 48.3199 53.6568 48.3416C53.5909 49.1716 53.5539 50.0035 53.5423 50.8362Z" fill="#383B4E"/>
<path d="M57.2711 70.8048L95.4879 87.7089L78.9762 77.6184L57.2711 70.8048Z" fill="#CB6739"/>
<path d="M29.4697 77.478C28.9436 77.1002 41.8956 72.0011 41.3792 71.6106L43.3226 70.8048L41.0857 71.523C38.7793 71.2491 25.8049 74.6919 24.8683 73.9068C20.4062 70.1665 16.3771 65.9249 12.9171 61.2371C8.97487 55.896 5.77975 50.0714 2.82544 44.1404V84.1107C2.82544 87.2077 5.34348 89.7183 8.44959 89.7183H56.7965C47.0369 87.2714 37.673 83.3674 29.4697 77.478Z" fill="#F38F30"/>
<path d="M70.8534 62.6155L95.488 40.4218L60.0098 68.5901L70.8534 62.6155Z" fill="#FFE179"/>
<path d="M30.7934 62.6155L41.637 68.5901L6.15887 40.4218L30.7934 62.6155Z" fill="#FFE179"/>
<path d="M82.172 36.46V11.5657H55.8063L78.5766 14.9513L82.172 36.46Z" fill="white"/>
<path d="M23.5872 52.4996C23.6172 52.5227 23.6481 52.5464 23.6782 52.5696C24.8699 53.4868 26.1614 54.4808 27.4897 55.5033C28.874 56.5687 30.2974 57.6643 31.6899 58.736C32.067 59.0263 32.442 59.3148 32.8131 59.6005C33.9265 60.4574 35.0062 61.2884 36.0137 62.0638C36.5175 62.4515 37.0032 62.8253 37.4661 63.1815C37.6204 63.3002 37.7722 63.417 37.9212 63.5317C38.2193 63.7611 38.5065 63.9821 38.7815 64.1937C39.0564 64.4053 39.319 64.6074 39.568 64.7989C39.817 64.9905 40.0522 65.1715 40.2723 65.3408C41.365 66.1815 42.0838 66.7343 42.2566 66.8667C42.2578 66.8677 42.2601 66.8694 42.2613 66.8703C42.262 66.8708 42.2627 66.8714 42.2634 66.8719C42.3371 66.9284 42.4103 66.9851 42.483 67.0421C42.63 67.157 42.7751 67.2729 42.9195 67.3889C43.0639 67.505 43.2074 67.6213 43.3509 67.7372C45.216 69.2444 47.0738 70.6934 50.7197 70.7987C50.8598 70.8027 51.0027 70.8048 51.1483 70.8048C51.3578 70.8048 51.5672 70.7967 51.7764 70.7849C53.4693 70.7024 54.8252 70.296 55.9677 69.7325C56.3338 69.5519 56.6785 69.3556 57.0062 69.1495C57.1701 69.0464 57.3297 68.9409 57.4856 68.8336C57.7194 68.6727 57.9449 68.5078 58.1639 68.3415C58.8209 67.8424 59.4195 67.3301 60.0097 66.8703C60.2665 66.6703 60.8321 66.2298 61.6172 65.6182C61.8907 65.4051 62.1905 65.1717 62.5153 64.9186C62.9078 64.6129 63.3347 64.2803 63.7914 63.9246C64.5314 63.3482 65.3469 62.7129 66.2158 62.036C66.5693 61.7607 66.93 61.4798 67.299 61.1923C67.5775 60.9753 67.8589 60.7561 68.1446 60.5336C68.3189 60.3978 68.4945 60.261 68.671 60.1235C69.3774 59.5733 70.1005 59.0101 70.8298 58.4419C71.0121 58.2999 71.1949 58.1575 71.3778 58.0149C71.7437 57.7299 72.1106 57.4441 72.477 57.1586C72.8435 56.8732 73.2096 56.588 73.574 56.3041C73.6375 56.2547 73.7006 56.2056 73.7639 56.1563C74.1761 55.8352 74.5856 55.5162 74.991 55.2004L75.6171 54.7127C75.9526 54.4513 76.284 54.1932 76.6111 53.9385C76.6651 53.8964 76.7198 53.8537 76.7736 53.8118C77.1446 53.5228 77.5062 53.2412 77.8624 52.9637C77.9787 52.8731 78.096 52.7817 78.2105 52.6926C78.2313 52.6764 78.2529 52.6595 78.2736 52.6435C78.285 52.6346 78.2961 52.6261 78.3074 52.6171C78.7797 52.2492 79.2363 51.8936 79.672 51.5542C79.8275 51.433 79.9801 51.3142 80.1302 51.1972C80.2673 51.0905 80.4024 50.9852 80.5348 50.882C80.6396 50.8005 80.7412 50.7212 80.8429 50.642C81.5039 50.1272 82.0959 49.666 82.6014 49.2722L82.8312 49.0932C83.6052 48.4903 84.1409 48.073 84.3578 47.904L84.4256 47.8512C84.4517 47.8309 84.469 47.8175 84.469 47.8175V44.8526C79.4259 48.781 63.276 61.3613 61.5079 62.7387C59.4093 64.3735 57.2045 66.6731 52.6463 66.6731C47.9867 66.6731 46.14 64.5628 43.7593 62.7387C42.6957 61.9237 18.8545 43.572 18.8545 43.572V10.0389H17.3565V47.7036C17.3565 47.7036 20.0107 49.7467 23.5872 52.4996Z" fill="#A1DAF8"/>
<path d="M84.469 43.1465V44.8526V47.8174L96.6128 38.3577L96.615 38.356L93.5988 36.0347L84.469 43.1465Z" fill="#A13827"/>
<path d="M17.3565 47.7036V38.7833L10.9708 33.8688L5.21039 38.356L5.21269 38.3577L17.4101 47.7448C17.3769 47.7194 17.3565 47.7036 17.3565 47.7036Z" fill="#A13827"/>
<path d="M4.47327 86.9123L41.3792 71.6106L43.3226 70.8048L41.0857 71.5231L22.5164 77.4856L4.47327 86.9123Z" fill="#CB6739"/>
</svg>
