<svg width="167" height="193" viewBox="0 0 167 193" fill="none" xmlns="http://www.w3.org/2000/svg">
<path d="M90.8096 151.156C91.6146 147.696 91.5134 143.379 94.1217 140.688C96.6287 138.104 100.737 137.169 103.98 135.957C112.025 132.953 120.126 129.157 126.557 123.338C138.849 112.198 142.377 95.0913 131.7 81.5187C127.151 75.7321 121.253 71.8114 114.698 69.1716L114.692 69.1708C111.432 68.7299 108.121 68.6366 104.837 68.7199C104.467 68.7292 104.097 68.7455 103.727 68.7593C98.8914 68.9374 94.0667 69.4737 89.2959 70.373C89.0653 70.4165 88.8346 70.4609 88.6038 70.5052C86.9864 70.8137 85.3666 71.121 83.7274 71.1438C83.6741 71.1444 83.6211 71.1479 83.5675 71.1479C83.33 71.1481 83.0928 71.1418 82.8557 71.1301C82.7939 71.1271 82.7322 71.1208 82.6704 71.1171C81.3526 71.0368 80.0435 70.7985 78.738 70.551C78.4606 70.4981 78.1831 70.4449 77.9061 70.3926C76.7447 70.1766 75.58 69.9832 74.4133 69.808C70.5292 69.2234 66.618 68.8638 62.7007 68.736C62.4962 68.7293 62.2913 68.7252 62.0866 68.7199C58.5809 68.6285 55.0478 68.7413 51.5802 69.2686C51.1876 69.3282 50.796 69.3934 50.4052 69.464C48.2225 69.8584 46.0695 70.4251 43.971 71.2264C42.6084 71.7477 41.2715 72.3807 39.9792 73.1122C35.8117 75.4691 32.1372 78.9073 29.7542 83.3528C29.6296 83.5851 29.5017 83.8149 29.384 84.0527C27.2774 88.3213 26.4795 93.08 26.2915 97.9768C26.125 102.297 26.4332 106.725 26.7357 111.015C27.7367 125.207 28.6677 140.272 36.0729 151.842C36.4577 152.443 36.8619 153.026 37.2761 153.598C37.3138 153.651 37.3533 153.701 37.3912 153.753C37.7557 154.251 38.1306 154.739 38.5159 155.216C38.6021 155.323 38.6901 155.428 38.7773 155.534C39.1196 155.949 39.4691 156.355 39.8263 156.754C39.9395 156.88 40.0524 157.006 40.1671 157.131C40.5144 157.509 40.8692 157.878 41.2294 158.24C41.3151 158.327 41.3959 158.419 41.4824 158.504L41.604 158.62C41.7924 158.805 41.9852 158.984 42.1769 159.165C42.3649 159.342 42.5523 159.519 42.7428 159.691C42.9986 159.924 43.2576 160.151 43.5185 160.377C43.5686 160.42 43.6173 160.466 43.6674 160.509C43.7109 160.546 43.7564 160.58 43.8001 160.617C44.1771 160.938 44.5588 161.252 44.9457 161.558C45.0601 161.649 45.1747 161.739 45.2901 161.829C45.6462 162.105 46.0061 162.376 46.3696 162.641C46.5124 162.745 46.6551 162.849 46.799 162.952C47.1432 163.196 47.491 163.435 47.8412 163.67C48.003 163.778 48.1641 163.888 48.3272 163.994C48.671 164.218 49.0185 164.436 49.3674 164.651C49.5362 164.755 49.7039 164.861 49.8739 164.963C50.2345 165.179 50.5989 165.387 50.9643 165.593C51.1223 165.683 51.2787 165.774 51.4374 165.862C51.8524 166.09 52.2711 166.31 52.6912 166.526C52.7993 166.581 52.9062 166.64 53.0145 166.694C54.0958 167.241 55.1933 167.744 56.3004 168.212C69.8384 169.326 87.4147 165.783 90.8096 151.156Z" fill="#F7A531"/>
<path d="M140.735 100.142C140.73 99.3174 140.716 98.4942 140.68 97.676C140.459 92.7648 139.608 88.0056 137.441 83.7486C136.121 81.1532 134.361 78.895 132.317 76.9829C129.629 74.4689 126.451 72.5547 123.13 71.2725C122.118 70.8834 121.093 70.5481 120.057 70.2596L120.01 70.2462C119.691 70.1575 119.369 70.0745 119.048 69.9947L118.94 69.9673C118.629 69.8912 118.317 69.82 118.004 69.7519C117.957 69.7416 117.91 69.7308 117.863 69.7206C117.554 69.6545 117.244 69.5926 116.934 69.5339C116.885 69.5246 116.835 69.5149 116.786 69.5058C116.47 69.4471 116.153 69.3922 115.835 69.3408L115.723 69.3226C115.618 69.3059 115.513 69.2897 115.408 69.2737V60.9184H103.727V68.7592C104.097 68.7455 104.467 68.7292 104.837 68.7198C108.115 68.6367 111.419 68.7296 114.673 69.1683L114.859 69.2369C121.349 71.876 127.188 75.7796 131.7 81.5187C142.377 95.0913 138.849 112.198 126.557 123.338C120.126 129.157 112.025 132.953 103.98 135.957C100.736 137.169 96.6286 138.104 94.1215 140.688C91.5132 143.379 91.6144 147.696 90.8094 151.156C87.4146 165.783 69.8382 169.326 56.3003 168.212L56.2993 168.212C56.3044 168.214 56.3094 168.216 56.3146 168.218C56.8523 168.446 57.3899 168.665 57.9278 168.87C58.5739 169.119 59.2223 169.354 59.8718 169.583C60.0469 169.645 60.2224 169.704 60.3978 169.765C60.8875 169.933 61.3782 170.096 61.8697 170.254C62.0559 170.313 62.2419 170.374 62.4286 170.432C63.0679 170.632 63.7083 170.824 64.3503 171.005C64.4375 171.03 64.525 171.052 64.6122 171.076C65.1714 171.231 65.7317 171.379 66.2927 171.521C66.5135 171.576 66.7345 171.63 66.9556 171.683C67.4112 171.793 67.8673 171.899 68.3239 172C68.5354 172.047 68.7467 172.095 68.9585 172.14C69.591 172.274 70.2245 172.401 70.8587 172.518C71.003 172.544 71.1477 172.567 71.2919 172.592C71.8052 172.683 72.3187 172.769 72.8328 172.848C73.0609 172.884 73.2893 172.917 73.5176 172.95C73.9841 173.017 74.4511 173.08 74.9183 173.137C75.1178 173.162 75.3172 173.189 75.5167 173.212C76.1611 173.286 76.806 173.353 77.4512 173.409C77.5935 173.421 77.736 173.43 77.8782 173.442C78.4053 173.484 78.9326 173.522 79.46 173.552C79.6652 173.564 79.8705 173.575 80.0758 173.585C80.5975 173.611 81.1194 173.631 81.6413 173.645C81.7877 173.648 81.9342 173.654 82.0805 173.657C82.7528 173.671 83.4249 173.676 84.0971 173.67C84.2008 173.669 84.3044 173.666 84.408 173.665C84.9886 173.657 85.5691 173.642 86.1494 173.62C86.3044 173.614 86.4593 173.608 86.6143 173.601C87.2383 173.573 87.8621 173.538 88.4856 173.493C88.5331 173.49 88.5804 173.487 88.6279 173.484C89.3426 173.431 90.0569 173.367 90.7705 173.292L90.8785 173.28C91.5459 173.209 92.2129 173.127 92.8792 173.037C92.9207 173.031 92.9622 173.027 93.0036 173.021L93.1047 173.006C94.613 172.796 96.1162 172.537 97.614 172.229C97.7518 172.2 97.8895 172.172 98.0272 172.142C99.519 171.826 101.005 171.462 102.486 171.045L102.59 171.017C106.063 168.557 108.938 165.355 110.82 161.25C112.306 158.011 113.042 154.473 113.695 150.99C114.38 147.304 115.921 145.263 119.289 143.655C125.301 140.79 130.803 138.449 135.44 133.46C136.502 132.317 137.487 131.11 138.393 129.843C138.402 129.786 138.409 129.728 138.418 129.671C138.488 129.224 138.551 128.775 138.615 128.326C138.671 127.934 138.727 127.541 138.779 127.147C138.829 126.774 138.875 126.399 138.922 126.024C138.978 125.569 139.033 125.113 139.085 124.656C139.127 124.294 139.166 123.932 139.205 123.57C139.253 123.125 139.299 122.68 139.343 122.235C139.383 121.828 139.423 121.421 139.461 121.014C139.494 120.666 139.525 120.318 139.556 119.97C139.603 119.437 139.65 118.903 139.694 118.37C139.701 118.283 139.708 118.196 139.715 118.109C139.9 115.852 140.061 113.6 140.224 111.369C140.492 107.677 140.757 103.884 140.735 100.142Z" fill="#F18D15"/>
<path d="M135.44 133.46C130.803 138.449 125.301 140.79 119.289 143.655C115.922 145.263 114.38 147.304 113.695 150.99C113.042 154.473 112.306 158.011 110.82 161.25C108.939 165.355 106.064 168.557 102.59 171.017C102.65 171.001 102.71 170.981 102.77 170.964C103.2 170.843 103.63 170.715 104.059 170.584C104.29 170.514 104.521 170.443 104.751 170.371C105.05 170.277 105.347 170.179 105.644 170.081C105.943 169.982 106.243 169.884 106.541 169.781C106.781 169.698 107.021 169.611 107.261 169.525C107.587 169.409 107.914 169.294 108.24 169.173C108.642 169.023 109.044 168.866 109.445 168.708C109.587 168.652 109.73 168.6 109.872 168.543C114.941 166.518 119.828 163.673 124.02 159.922C126.55 157.659 128.827 155.066 130.739 152.123C131.221 151.381 131.675 150.624 132.105 149.854C132.134 149.803 132.16 149.751 132.188 149.7C132.37 149.371 132.549 149.04 132.721 148.706C132.777 148.599 132.83 148.49 132.884 148.382C133.026 148.103 133.166 147.824 133.301 147.543C133.371 147.396 133.438 147.248 133.507 147.101C133.621 146.856 133.735 146.612 133.845 146.365C133.925 146.186 134 146.005 134.078 145.825C134.171 145.608 134.265 145.392 134.355 145.173C134.44 144.968 134.521 144.761 134.603 144.554C134.68 144.358 134.759 144.163 134.834 143.966C134.921 143.738 135.004 143.509 135.088 143.279C135.153 143.102 135.218 142.925 135.281 142.748C135.369 142.499 135.453 142.25 135.537 142C135.592 141.838 135.647 141.677 135.7 141.514C135.786 141.25 135.87 140.985 135.952 140.719C135.999 140.568 136.046 140.418 136.092 140.267C136.176 139.99 136.257 139.711 136.337 139.432C136.377 139.29 136.418 139.149 136.458 139.007C136.538 138.719 136.616 138.43 136.692 138.14C136.728 138.004 136.764 137.868 136.799 137.732C136.874 137.439 136.948 137.145 137.019 136.851C137.053 136.712 137.087 136.573 137.12 136.433C137.188 136.144 137.255 135.854 137.32 135.563C137.354 135.413 137.387 135.262 137.42 135.111C137.48 134.834 137.539 134.557 137.597 134.278C137.633 134.103 137.669 133.927 137.704 133.751C137.754 133.502 137.803 133.252 137.85 133.001C137.892 132.781 137.933 132.56 137.974 132.339C137.996 132.213 138.021 132.088 138.043 131.963C138.052 131.914 138.059 131.864 138.068 131.815C138.183 131.159 138.295 130.503 138.393 129.843C137.487 131.11 136.503 132.317 135.44 133.46Z" fill="#E57F12"/>
<path d="M73.875 81.0814C73.0617 78.2666 70.6081 76.1251 67.8508 75.1453C65.0933 74.1654 62.0663 74.2179 59.1783 74.6874C58.0851 74.8651 57.0027 75.1032 55.9361 75.3984C49.1121 77.2875 42.9374 81.5172 38.7664 87.2539C33.9435 93.8871 31.8577 102.455 33.091 110.568C33.4289 112.79 34.0318 115.035 35.3578 116.849C36.6836 118.664 38.8478 119.984 41.0864 119.815C43.1132 119.662 44.9051 118.325 46.0782 116.663C47.2513 115.001 47.8975 113.031 48.4866 111.083C49.6793 107.138 50.7471 103.053 53.118 99.6841C55.2718 96.6238 58.3446 94.4174 61.6307 92.7133C66.4223 90.2284 76.1414 88.9257 73.875 81.0814Z" fill="white"/>
<path d="M91.4775 133.799C91.4731 133.703 91.4633 133.606 91.4478 133.509L88.702 116.253L88.7545 116.2C88.8159 116.14 88.8757 116.08 88.935 116.018C89.0349 115.914 89.1312 115.807 89.2252 115.698C89.2795 115.635 89.334 115.572 89.3863 115.507C89.4846 115.385 89.5774 115.258 89.6681 115.13C89.7078 115.073 89.7498 115.019 89.7881 114.962C89.9131 114.774 90.031 114.582 90.1391 114.383L90.1748 114.311C90.2684 114.134 90.3555 113.954 90.4352 113.769C90.4655 113.699 90.4914 113.627 90.5195 113.556C90.5761 113.414 90.6299 113.27 90.6779 113.123C90.7048 113.041 90.7289 112.958 90.7529 112.875C90.7943 112.732 90.8313 112.588 90.8644 112.442C90.8835 112.357 90.9025 112.273 90.9187 112.187C90.9485 112.03 90.9714 111.871 90.9915 111.711C91.001 111.635 91.013 111.56 91.0202 111.484C91.0426 111.247 91.0565 111.008 91.0565 110.765V110.765C91.0565 109.91 90.9087 109.092 90.6483 108.326C90.5214 107.953 90.3665 107.593 90.1858 107.248C90.0052 106.904 89.7991 106.575 89.5697 106.264C89.4551 106.109 89.3347 105.958 89.2087 105.812C87.9497 104.353 86.1448 103.38 84.1103 103.215C83.9068 103.199 83.7011 103.19 83.4934 103.19C83.255 103.19 83.02 103.204 82.7873 103.226C82.715 103.233 82.6442 103.243 82.5726 103.252C82.4101 103.272 82.2492 103.296 82.0901 103.326C82.0125 103.34 81.9355 103.356 81.8588 103.373C81.6983 103.408 81.5402 103.449 81.3837 103.495C81.3202 103.513 81.256 103.53 81.1932 103.55C80.979 103.618 80.7682 103.694 80.5626 103.781L80.4734 103.822C80.2982 103.899 80.1264 103.982 79.9585 104.071C79.893 104.106 79.8294 104.143 79.765 104.18C79.6327 104.255 79.5028 104.334 79.3756 104.416C79.3108 104.459 79.2463 104.501 79.1829 104.545L79.0649 104.624L79.0835 104.62C79.7037 104.455 80.355 104.367 81.0269 104.367C85.204 104.367 88.5899 107.758 88.5899 111.941C88.5899 114.468 87.5705 116.641 85.6713 118.018L87.6869 130.685C87.9343 132.238 86.7359 133.645 85.1652 133.645H75.5209L75.5169 133.722C75.5133 133.769 75.5107 133.816 75.5097 133.862C75.5087 133.909 75.5094 133.956 75.511 134.003C75.5127 134.049 75.5147 134.095 75.5187 134.14C75.5228 134.187 75.5288 134.232 75.5353 134.278C75.5417 134.323 75.5486 134.367 75.5573 134.411C75.5663 134.456 75.5771 134.5 75.5884 134.544C75.5995 134.588 75.6107 134.631 75.6239 134.673C75.6375 134.717 75.6528 134.759 75.6686 134.801C75.684 134.842 75.6994 134.884 75.7169 134.924C75.7349 134.966 75.755 135.006 75.775 135.047L75.8347 135.163L75.9057 135.279L75.9764 135.387L76.0592 135.495L76.1397 135.595L76.234 135.695L76.324 135.785L76.4295 135.876L76.5267 135.956L76.6441 136.037L76.7473 136.105C76.789 136.13 76.8328 136.152 76.876 136.175L76.9839 136.231C77.0294 136.253 77.077 136.27 77.1241 136.289L77.235 136.333C77.2854 136.35 77.3376 136.363 77.3894 136.377L77.4992 136.407C77.557 136.42 77.6166 136.428 77.676 136.437L77.7751 136.453C77.8632 136.463 77.9527 136.468 78.0434 136.468L78.0607 136.469H88.926C90.3064 136.469 91.3994 135.383 91.4759 134.065C91.4811 133.977 91.4817 133.888 91.4775 133.799Z" fill="#DB5F12"/>
<path d="M62.0867 49.533C62.0867 38.914 71.4264 30.2749 82.9068 30.2749C94.3871 30.2749 103.727 38.914 103.727 49.533V60.9185H115.408V49.533C115.408 32.8608 100.828 19.2972 82.9068 19.2972C64.9854 19.2972 50.4054 32.8609 50.4054 49.533V60.9185H62.0868V49.533H62.0867Z" fill="#F7A531"/>
<path d="M62.0867 68.7199V60.9184H50.4053V69.464C50.7961 69.3934 51.1877 69.3282 51.5803 69.2685C55.0479 68.7413 58.581 68.6285 62.0867 68.7199Z" fill="#F18D15"/>
<path d="M85.6714 118.018C87.5704 116.641 88.5899 114.468 88.5899 111.941C88.5899 107.758 85.204 104.367 81.0269 104.367C80.355 104.367 79.6851 104.459 79.0649 104.624C77.1578 105.999 75.9303 108.232 75.9303 110.765C75.9303 112.925 76.8374 114.869 78.2855 116.248L75.5389 133.509C75.5317 133.555 75.5298 133.599 75.525 133.645H85.1653C86.736 133.645 87.9344 132.238 87.687 130.685L85.6714 118.018Z" fill="#E86810"/>
</svg>
