<svg width="35" height="35" viewBox="0 0 35 35" fill="none" xmlns="http://www.w3.org/2000/svg">
<path d="M6.7939 13.7353C6.60523 13.7353 6.41382 13.7325 6.21421 13.7216C5.15327 13.6779 4.32202 13.3197 3.74233 12.6634C2.70054 11.4822 2.76343 9.66926 2.7771 9.4177L2.7853 9.39309C2.84819 9.17707 3.03413 8.51536 3.57827 8.22825C3.93374 8.03958 4.25366 7.94934 4.55444 7.94934C4.94546 7.94934 5.3064 8.10247 5.65913 8.41965C6.55874 9.22903 7.56773 9.73215 8.2896 9.73215C8.8064 9.73215 10.1873 9.65286 10.7505 9.61731L11.6037 12.431C11.1716 12.7673 9.68413 13.7353 6.7939 13.7353Z" fill="#37474F"/>
<path d="M4.5516 8.25283C4.86332 8.25283 5.15864 8.38135 5.45121 8.64385C6.41918 9.51611 7.48012 10.0356 8.28676 10.0356C8.74613 10.0356 9.8727 9.97275 10.5262 9.93447L11.2454 12.3134C10.6985 12.6853 9.29848 13.4263 6.79379 13.4263C6.60785 13.4263 6.41645 13.4235 6.22778 13.4153C5.25434 13.3743 4.49692 13.0544 3.97465 12.4638C3.04496 11.411 3.06684 9.78135 3.08051 9.4669C3.1352 9.27275 3.29653 8.71768 3.72035 8.49619C4.0266 8.33213 4.30004 8.25283 4.5516 8.25283ZM4.5516 7.64307C4.15785 7.64307 3.78051 7.77432 3.43051 7.95752C2.7059 8.34033 2.51449 9.23447 2.47348 9.36299C2.47348 9.36299 2.08793 13.8528 6.20043 14.0251C6.40551 14.0333 6.60239 14.0388 6.79379 14.0388C10.4688 14.0388 11.9508 12.5349 11.9508 12.5349L10.9719 9.29736C10.9719 9.29736 8.9266 9.42588 8.28949 9.42588C7.65239 9.42588 6.71449 8.9583 5.86137 8.18994C5.41567 7.79346 4.97543 7.64307 4.5516 7.64307Z" fill="#90A4AE"/>
<path d="M1.71626 18.3346C1.30337 19.7072 1.34439 22.1299 1.34439 22.1299C1.34439 22.5154 1.58775 23.1881 2.15103 23.4014C5.10962 24.5142 8.48111 24.2217 10.242 25.0283C12.2874 25.9662 18.9155 28.851 24.4608 28.2412C31.0616 27.5166 33.1561 24.5361 33.5143 23.7049C33.7686 23.1088 33.9409 20.8502 33.6838 20.7654C30.8784 19.8303 20.4139 23.981 18.4999 22.5346C16.8565 21.2932 2.12915 16.9619 1.71626 18.3346Z" fill="#E0E0E0"/>
<path d="M3.30484 7.9794C3.30484 7.9794 1.74898 9.19073 1.34703 11.7282C0.917735 14.4107 0.537657 18.3345 2.47359 19.8712C3.90367 21.006 8.31969 20.4564 10.365 21.3942C12.4103 22.3321 18.6119 27.0052 24.1572 26.3982C30.758 25.6735 33.0849 22.8025 33.4404 21.9685C33.6947 21.3724 34.4002 20.3142 30.6732 18.813C27.9279 17.7083 25.8334 16.0704 23.9166 14.6212C22.2732 13.3798 16.3369 9.76495 16.3369 9.76495C16.3369 9.76495 15.3443 7.40792 13.6955 7.03878C12.6127 6.79542 10.2037 8.07237 9.77711 9.23722C9.30406 10.5306 9.89195 11.7228 9.89195 11.7228C7.33805 13.0571 6.45758 13.2567 4.72398 12.1493C2.99039 11.0419 3.30484 7.9794 3.30484 7.9794Z" fill="#0277BD"/>
<path d="M3.30484 7.9794C3.30484 7.9794 1.74898 9.19073 1.34703 11.7282C0.917735 14.4107 0.537657 18.3345 2.47359 19.8712C3.90367 21.006 8.31969 20.4564 10.365 21.3942C12.4103 22.3321 18.6119 27.0052 24.1572 26.3982C30.758 25.6735 33.0849 22.8025 33.4404 21.9685C33.6947 21.3724 34.4002 20.3142 30.6732 18.813C27.9279 17.7083 25.8334 16.0704 23.9166 14.6212C22.2732 13.3798 16.3369 9.76495 16.3369 9.76495C16.3369 9.76495 15.3443 7.40792 13.6955 7.03878C12.6127 6.79542 10.2037 8.07237 9.77711 9.23722C9.30406 10.5306 9.89195 11.7228 9.89195 11.7228C7.33805 13.0571 6.45758 13.2567 4.72398 12.1493C2.99039 11.0419 3.30484 7.9794 3.30484 7.9794Z" fill="#0277BD"/>
<path d="M10.1025 11.7064C10.7588 11.597 11.2947 11.5833 11.9455 11.6653C11.9728 11.0064 11.6556 10.2571 11.3166 9.7048C11.2345 9.57081 11.1416 9.43956 11.0896 9.29191C10.8162 8.52081 12.2763 7.72784 12.8588 7.55831C13.4986 7.36964 14.1959 7.39972 14.8193 7.63761C14.4912 7.3587 14.1166 7.13995 13.7009 7.04425C12.6947 6.8173 11.415 7.50909 10.6357 8.07784C9.42711 8.95558 9.19742 10.2708 9.85641 11.6216C9.87281 11.6571 9.89469 11.6954 9.9275 11.7118C9.96305 11.731 10.0068 11.7255 10.0478 11.7173C10.0615 11.7118 10.0806 11.7091 10.1025 11.7064Z" fill="#BDBDBD"/>
<path d="M25.0759 15.4962C24.7806 15.2774 24.4006 15.1927 24.0506 15.3021C23.974 15.3267 23.8974 15.354 23.8236 15.3841C23.1619 15.6575 22.6369 16.1743 22.1365 16.6884C21.6361 17.1997 21.1302 17.7329 20.4904 18.0501C19.6236 18.4794 18.8881 18.2688 18.024 18.2251C17.2338 18.1868 16.7416 18.597 16.5638 19.4255C16.4408 20.0024 16.7197 20.7817 17.2228 21.0907C18.9482 22.1517 20.6381 22.6247 22.5138 22.879C24.9146 23.2044 27.4248 22.6548 29.4701 21.3587C30.0498 20.9923 30.6295 20.511 30.7716 19.8384C30.7716 19.8356 30.7744 19.8302 30.7744 19.8274C30.881 19.3079 30.583 18.7829 30.0963 18.5669C28.1549 17.7083 26.5416 16.5899 25.0759 15.4962Z" fill="#03A9F4"/>
<path d="M19.7001 18.7885C19.033 18.7885 18.3712 18.4904 17.7287 18.124C16.6978 17.5361 12.5498 14.8072 11.2974 13.9814C11.0076 14.3287 10.5181 14.8346 9.9439 15.0697C9.40249 15.2912 8.95405 15.242 8.55757 15.201C8.16108 15.16 7.84663 15.1244 7.42007 15.3377C6.84858 15.6248 6.33999 16.024 5.76304 16.3002C5.1478 16.5955 4.01304 16.56 3.43335 16.3412C2.08257 15.8326 1.87476 15.1135 1.8064 14.8291C2.47085 15.2994 3.33491 15.8107 4.30015 15.7697C5.73022 15.7096 6.24976 14.9166 7.01812 14.5311C7.67983 14.2002 8.21851 14.2576 8.65327 14.3041C8.9978 14.3396 9.27124 14.3697 9.60483 14.233C10.1298 14.0197 10.6603 13.358 10.8216 13.1201L11.0705 12.751L11.4423 12.9971C11.497 13.0353 17.0095 16.6748 18.1744 17.3393C18.8142 17.7057 19.6263 18.1186 20.3373 17.7057C21.1494 17.2354 21.8111 16.4752 22.5494 15.8982C22.9212 15.6057 23.3205 15.3295 23.7771 15.201C24.2337 15.0752 24.7642 15.1271 25.1197 15.4389C23.6486 15.5236 22.44 16.8307 21.524 17.8615C20.9251 18.5369 20.3126 18.7885 19.7001 18.7885Z" fill="#004A7C"/>
<path d="M17.0449 15.2857C17.4715 13.7818 18.5188 12.5595 19.2023 11.5369M14.9395 13.8529C14.9449 12.3435 16.4488 10.2216 16.7031 9.99194" stroke="#9E9E9E" stroke-width="0.915742" stroke-miterlimit="10" stroke-linecap="round"/>
<path d="M12.4568 12.6771C13.8787 11.299 15.7654 10.0521 16.7033 9.88257M14.9396 13.8529C16.1017 12.6169 17.6111 11.7119 19.249 11.2689" stroke="#E0E0E0" stroke-width="0.915742" stroke-miterlimit="10" stroke-linecap="round"/>
<path d="M19.4048 16.2782C19.8067 15.1134 20.5724 13.8665 21.2696 12.8575" stroke="#9E9E9E" stroke-width="0.915742" stroke-miterlimit="10" stroke-linecap="round"/>
<path d="M16.9138 15.2856C18.1141 14.041 19.647 13.1677 21.3298 12.77" stroke="#E0E0E0" stroke-width="0.915742" stroke-miterlimit="10" stroke-linecap="round"/>
<path d="M5.06305 8.16811C5.03297 8.19819 4.99195 8.2146 4.9482 8.22827C4.67476 8.31304 4.49156 8.21186 4.21265 8.27749C3.84625 8.36499 3.4607 8.72319 3.37047 9.0896C3.28023 9.456 3.34312 9.84155 3.44976 10.1998C3.65484 10.8806 4.02945 11.5095 4.52984 12.0154C4.68844 12.174 4.86344 12.3298 4.94273 12.5404C5.02203 12.7509 4.95914 13.0353 4.75133 13.1146C4.66656 13.1474 4.57086 13.1419 4.48062 13.1228C4.31929 13.09 4.16617 13.0162 4.02125 12.9369C3.53726 12.6716 3.09429 12.3271 2.72242 11.9197C2.47086 11.6462 2.24937 11.3373 2.11265 10.9927C1.80094 10.1943 2.05797 9.27007 2.58297 8.59194C2.96578 8.09702 3.34859 7.87554 4.01304 7.74155C4.22359 7.6978 4.61734 7.64311 4.98648 7.71694C5.15328 7.74975 5.2189 8.01772 5.06305 8.16811Z" fill="#03A9F4"/>
<path d="M9.80997 11.5369C9.81817 11.5588 9.69512 11.4877 9.68692 11.5096C9.66778 11.5561 9.59942 11.5369 9.5584 11.5096C9.35606 11.3701 9.22481 11.1541 9.10723 10.9408C8.98418 10.7139 8.87481 10.4705 8.86114 10.2135C8.82012 9.4752 9.62403 9.36035 9.62403 9.36035C9.48731 9.67207 9.49004 10.0768 9.48731 10.2846C9.48184 10.7029 9.65684 11.1486 9.80997 11.5369Z" fill="#37474F"/>
<path d="M2.16172 23.374C2.49805 23.4725 2.83437 23.5518 3.17617 23.6201C3.51523 23.6912 3.85703 23.7541 4.19883 23.8033C4.88516 23.9018 5.57695 23.9592 6.27148 24.0057C6.96602 24.0631 7.66328 24.1123 8.36875 24.1916C9.06875 24.2764 9.80703 24.383 10.5098 24.6893C11.7922 25.2115 13.0773 25.7256 14.3898 26.1494C15.6969 26.5869 17.023 26.9697 18.3629 27.2541C19.7 27.5549 21.0562 27.7518 22.4125 27.8092C23.0906 27.8393 23.766 27.8311 24.4387 27.7682C25.1195 27.6998 25.7977 27.615 26.473 27.5002C27.8184 27.265 29.1418 26.8795 30.3641 26.2779C30.9793 25.9854 31.5727 25.6381 32.1086 25.2115C32.3766 25.001 32.6309 24.7686 32.866 24.517C33.1039 24.2682 33.3254 24.0002 33.4895 23.6967L33.5441 23.7213C33.2434 24.3639 32.7594 24.8916 32.2398 25.3592C31.7148 25.8268 31.127 26.2178 30.5145 26.5541C29.2812 27.224 27.9359 27.6643 26.5688 27.9541C25.2016 28.2385 23.8016 28.4189 22.3988 28.3725C20.9988 28.3342 19.607 28.1346 18.2371 27.8393C15.5027 27.235 12.8586 26.2725 10.3184 25.1131C9.69219 24.815 9.00039 24.6865 8.31406 24.5799C7.625 24.476 6.93047 24.4049 6.23594 24.3201C4.85234 24.1506 3.45781 23.9264 2.14258 23.4314L2.16172 23.374Z" fill="#82AEC0"/>
</svg>
