<svg width="24" height="35" viewBox="0 0 24 35" fill="none" xmlns="http://www.w3.org/2000/svg">
<path d="M27.3328 21.7437C27.3328 21.7437 22.1266 21.0438 20.7156 16.975H20.7047V12.6766C20.7047 11.9253 20.4062 11.2047 19.875 10.6735C19.3437 10.1422 18.6232 9.84375 17.8719 9.84375H5.02031C4.269 9.84375 3.54847 10.1422 3.01721 10.6735C2.48596 11.2047 2.1875 11.9253 2.1875 12.6766V28.3609H12.4688C14.175 28.3609 15.5531 28.6453 15.5531 30.3516H29.5969C30.7672 30.3516 31.7188 30.4937 31.7188 29.3234L32.8125 28.3719C32.8234 25.1234 30.5156 22.3453 27.3328 21.7437Z" fill="#FFB02E"/>
<path d="M2.1875 15.1375V12.6766C2.1875 11.9253 2.48596 11.2047 3.01721 10.6735C3.54847 10.1422 4.269 9.84375 5.02031 9.84375H11.8781V13.0266C11.8781 14.1969 10.9266 15.1375 9.76719 15.1375H2.1875ZM20.3645 14.2406C20.4636 14.2393 20.5615 14.2185 20.6526 14.1794C20.7437 14.1403 20.8261 14.0836 20.8953 14.0126C20.9645 13.9416 21.019 13.8577 21.0557 13.7656C21.0924 13.6736 21.1107 13.5752 21.1094 13.4761C21.1081 13.377 21.0873 13.2791 21.0482 13.188C21.009 13.097 20.9524 13.0145 20.8814 12.9453C20.8104 12.8762 20.7265 12.8217 20.6344 12.7849C20.5423 12.7482 20.444 12.73 20.3448 12.7313L17.7198 12.7641C17.5197 12.7667 17.3288 12.8487 17.1891 12.9921C17.0494 13.1354 16.9724 13.3284 16.975 13.5286C16.9776 13.7287 17.0596 13.9197 17.203 14.0594C17.3464 14.199 17.5394 14.276 17.7395 14.2734L20.3645 14.2406ZM32.8125 28.3609V30.1219C32.8125 30.625 32.8453 30.8 32.6922 31.1609C32.4625 32.0359 31.6859 32.6922 30.7891 32.7906C29.7719 32.9 28.8641 32.3094 28.5031 31.4453H27.3656C27.1958 31.8474 26.9112 32.1905 26.5474 32.4317C26.1836 32.673 25.7568 32.8016 25.3203 32.8016C24.8838 32.8016 24.457 32.673 24.0932 32.4317C23.7295 32.1905 23.4449 31.8474 23.275 31.4453H22.1375C21.9676 31.8474 21.683 32.1905 21.3193 32.4317C20.9555 32.673 20.5287 32.8016 20.0922 32.8016C19.6557 32.8016 19.2289 32.673 18.8651 32.4317C18.5013 32.1905 18.2167 31.8474 18.0469 31.4453H16.9094C16.7395 31.8474 16.4549 32.1905 16.0911 32.4317C15.7274 32.673 15.3006 32.8016 14.8641 32.8016C14.4276 32.8016 14.0008 32.673 13.637 32.4317C13.2732 32.1905 12.9886 31.8474 12.8188 31.4453H11.6813C11.5114 31.8474 11.2268 32.1905 10.863 32.4317C10.4992 32.673 10.0724 32.8016 9.63594 32.8016C9.19944 32.8016 8.77263 32.673 8.40886 32.4317C8.04508 32.1905 7.76048 31.8474 7.59063 31.4453H6.45312C6.25287 31.9162 5.8962 32.3035 5.44339 32.5418C4.99057 32.7801 4.46938 32.8547 3.96788 32.7531C3.46638 32.6516 3.01533 32.38 2.69094 31.9842C2.36655 31.5885 2.18872 31.0929 2.1875 30.5812V28.3609H32.8125ZM21.1094 16.9958C21.1126 17.1958 21.0363 17.3888 20.8973 17.5326C20.7582 17.6764 20.5678 17.759 20.3678 17.7625L17.7428 17.8063C17.6437 17.808 17.5452 17.7902 17.453 17.7538C17.3608 17.7175 17.2766 17.6633 17.2053 17.5945C17.0613 17.4554 16.9785 17.2648 16.975 17.0647C16.9715 16.8645 17.0477 16.6712 17.1868 16.5272C17.3258 16.3832 17.5164 16.3004 17.7166 16.2969L20.3416 16.2531C20.4408 16.2514 20.5393 16.2692 20.6316 16.3056C20.7239 16.342 20.8082 16.3963 20.8795 16.4652C20.9508 16.5342 21.0078 16.6166 21.0472 16.7076C21.0867 16.7987 21.1078 16.8966 21.1094 16.9958Z" fill="#7D4533"/>
</svg>
